
<svg xmlns="http://www.w3.org/2000/svg" version="1.1" xmlns:xlink="http://www.w3.org/1999/xlink" preserveAspectRatio="none" x="0px" y="0px" width="150px" height="150px" viewBox="0 0 150 150">
<defs>
<g id="Layer0_0_FILL">
<path fill="#000000" stroke="none" d="
M 131.1 7.25
Q 130.8 7.3 130.45 7.5 117.1 11.6 104.3 17.3 95.65 21.15 86.65 24.1 82.55 25.6 79.8 27.45 78.45 28.4 77.35 29.55 77.3 29.55 77.3 29.5 77.05 29.85 76.9 30.1 76.35 30.75 75.9 31.4 75.5 32.05 75 32.65 66.25 28.3 56.7 25.4 52.5 24.05 48.2 23.05 29.55 18.7 11.25 13.65 10.9 13.75 10.9 14.05 9.75 20.75 13.05 28.9 14.6 32.6 16.2 36.35 25.55 58.05 37.05 78.45 36.05 81.15 36.05 84.05 36.8 84.25 37.7 84.25 31.85 90.85 28.15 99.55 24.9 107.05 19.1 112.4 12.05 119.15 10.95 126.8 10 132.85 12.8 139.5 14.2 139.15 15.55 138.75 42.45 131 72.05 123.6 74.5 123 75.45 120.75 78.5 125.1 84.55 127.55 104.05 135.45 123.25 140.3 131.1 142.25 138.85 143.65 139.45 143.05 139.4 142.05 139.4 122.8 133.25 103.75 128.5 88.85 120 77.85 120.15 77.85 120.35 77.95 120.45 77.55 120.6 77.15 126.3 75.1 127.15 66.8 129.2 46.95 130.45 27.05 130.65 21.5 133.7 17.65 133.95 17.3 134.15 17.05 140.6 8.1 131.1 7.25
M 125.95 16
Q 125.6 18.55 125.2 21.1 123 36.75 121.4 52.2 120.3 62.3 119.4 71.55 118.7 70.6 117.6 69.8 108.15 61.95 99.5 52.75 91.15 43.65 83.35 35.55 103.5 24.2 125.95 16
M 104.1 68.4
Q 107.6 71.65 111.15 73.9 111.25 74 111.25 74.05 111.75 74.85 112.15 75.5 106.6 79.4 101.5 83.7 86.7 96.1 75.15 112.4 74.5 111.35 73.55 110.4 65.3 102.35 56.2 95.4 48.55 89.65 44.1 81.75 44.7 81.05 45.4 80.2 61.7 59.45 79.1 39.05 81.8 43.25 84.9 47.25 87.15 50.2 89.65 53.1 96.4 61 104.1 68.4
M 108.5 84.55
Q 111.75 81.85 114.2 78.65 121.9 91.25 126.9 105.15 132.65 121.15 133.2 137.4 127.35 135 120.75 132.85 120.5 132.75 120.3 132.7 100.65 126.4 81.45 119.75 81.75 119 82.05 118.35 90.05 101.65 103.5 88.95 105.9 86.65 108.5 84.55
M 42.75 29.15
Q 47.6 30.55 52.45 32.05 62.45 35 71.95 37 62.7 49.45 52.45 61.5 49.75 64.7 46.45 67.2 41.55 70.75 38.9 74.75 37.7 65.3 32.8 55.4 27.7 45.1 23.25 34.45 20.6 28.15 18.1 21.75 19.45 21.45 21.45 22.05 32.15 25.85 42.75 29.15
M 41.55 89.8
Q 44.1 94.25 49.9 98.35 59.35 105.15 67 113.95 69.35 116.65 71.85 118.45 39.85 123.7 15.85 132.15 15.8 131.7 16 131.35 23.85 120 30.25 107.6 35.1 98.05 41.55 89.8 Z"/>

<path fill="#0000FF" stroke="none" d="
M 49.9 98.35
Q 44.1 94.25 41.55 89.8 35.1 98.05 30.25 107.6 23.85 120 16 131.35 15.8 131.7 15.85 132.15 39.85 123.7 71.85 118.45 69.35 116.65 67 113.95 59.35 105.15 49.9 98.35 Z"/>

<path fill="#FFFF00" stroke="none" d="
M 52.45 32.05
Q 47.6 30.55 42.75 29.15 32.15 25.85 21.45 22.05 19.45 21.45 18.1 21.75 20.6 28.15 23.25 34.45 27.7 45.1 32.8 55.4 37.7 65.3 38.9 74.75 41.55 70.75 46.45 67.2 49.75 64.7 52.45 61.5 62.7 49.45 71.95 37 62.45 35 52.45 32.05 Z"/>

<path fill="#00FFFF" stroke="none" d="
M 114.2 78.65
Q 111.75 81.85 108.5 84.55 105.9 86.65 103.5 88.95 90.05 101.65 82.05 118.35 81.75 119 81.45 119.75 100.65 126.4 120.3 132.7 120.5 132.75 120.75 132.85 127.35 135 133.2 137.4 132.65 121.15 126.9 105.15 121.9 91.25 114.2 78.65 Z"/>

<path fill="#00FF00" stroke="none" d="
M 111.15 73.9
Q 107.6 71.65 104.1 68.4 96.4 61 89.65 53.1 87.15 50.2 84.9 47.25 81.8 43.25 79.1 39.05 61.7 59.45 45.4 80.2 44.7 81.05 44.1 81.75 48.55 89.65 56.2 95.4 65.3 102.35 73.55 110.4 74.5 111.35 75.15 112.4 86.7 96.1 101.5 83.7 106.6 79.4 112.15 75.5 111.75 74.85 111.25 74.05 111.25 74 111.15 73.9 Z"/>

<path fill="#FF0033" stroke="none" d="
M 125.2 21.1
Q 125.6 18.55 125.95 16 103.5 24.2 83.35 35.55 91.15 43.65 99.5 52.75 108.15 61.95 117.6 69.8 118.7 70.6 119.4 71.55 120.3 62.3 121.4 52.2 123 36.75 125.2 21.1 Z"/>
</g>
</defs>

<g transform="matrix( 1, 0, 0, 1, 0,0) ">
<use xlink:href="#Layer0_0_FILL"/>
</g>
</svg>
